# xmcd
#
# Track frame offsets:
#        150
#        39594
#        59050
#        70019
#        98279
#        109819
#        141785
#        171435
#        201044
#        214683
#        232832
#        252098
#        256759
#        283184
#
# Disc length: 4090 seconds
#
# Revision: 0
# Processed by: cddbd v1.5.1PL0 Copyright (c) Steve Scherf et al.
# Submitted via: ExactAudioCopy v0.95a5
#
DISCID=c50ff80e
DTITLE=Frankie Feliciano - Mix The Vibe: King Street Ricanstructed
DYEAR=2002
DGENRE=House
TTITLE0=Urban Soul - Show Me (Def Dubapella and Def Club Mix)
TTITLE1=Tears Of Velva - The Way I Feel (4 Daye Club)
TTITLE2=A Lil' Louis Painting - Stormy Black (Lil Louis Do Be Do Mix)
TTITLE3=95 North - (feat. Sabrynaah Pope) - Hold On (Louie's Maw Club)
TTITLE4=Bassmental - (feat. Charles Mcdougald) - It's The Music (King
TTITLE4=Street Club Mix)
TTITLE5=Mondo Grosso - Souffle's H (King Street Club Mix)
TTITLE6=Ananda Project - (feat. Heather Johnson) - Breaking Down (Loui
TTITLE6=e's Revival Mix)
TTITLE7=Kimara Lovelace - Misery (Lil' Louis Extended Club Mix)
TTITLE8=Frankie Feliciano - King Street Carnival (Ricanstruction Mix)
TTITLE9=Ananda Project - (feat. Terrance Downs) - Glory Glory (Def Clu
TTITLE9=b Mix)
TTITLE10=Myra - Come To Me (Unreleased Afro Dub and Ricanstruction Inst.
TTITLE10=)
TTITLE11=Stephanie Cooke - Here With My Best Friend (Bonus Beats)
TTITLE12=Stephanie Cooke - Stay (Ricanstruction Vocal Mix)
TTITLE13=Big Moses - (feat. Kenny Bobien) - Never Again (Original Mix)
EXTD=
EXTT0=
EXTT1=
EXTT2=
EXTT3=
EXTT4=
EXTT5=
EXTT6=
EXTT7=
EXTT8=
EXTT9=
EXTT10=
EXTT11=
EXTT12=
EXTT13=
PLAYORDER=
